<mxfile host="app.diagrams.net" modified="2022-10-26T14:45:13.795Z" agent="5.0 (X11; Linux x86_64) AppleWebKit/537.36 (KHTML, like Gecko) Chrome/102.0.0.0 Safari/537.36" etag="GDoSIN3_pp3gUluGTwgX" version="20.5.1" type="github" pages="5">
  <diagram id="prtHgNgQTEPvFCAcTncT" name="Micro services connection">
    <mxGraphModel dx="1422" dy="1935" grid="1" gridSize="10" guides="1" tooltips="1" connect="1" arrows="1" fold="1" page="1" pageScale="1" pageWidth="827" pageHeight="1169" math="0" shadow="0">
      <root>
        <mxCell id="0" />
        <mxCell id="1" parent="0" />
        <mxCell id="gpCZ0KJSFsDUlAHGbTXS-2" value="" style="rounded=0;whiteSpace=wrap;html=1;fillColor=#f5f5f5;fontColor=#333333;strokeColor=#666666;" vertex="1" parent="1">
          <mxGeometry x="70" y="360" width="1070" height="730" as="geometry" />
        </mxCell>
        <mxCell id="dNxyNK7c78bLwvsdeMH5-11" value="Orgchart" style="swimlane;html=1;startSize=20;horizontal=1;containerType=tree;glass=0;" parent="1" vertex="1">
          <mxGeometry x="200" y="-10" width="890" height="1330" as="geometry" />
        </mxCell>
        <mxCell id="emcT6BMZgjp_fwxbqr2T-5" style="edgeStyle=orthogonalEdgeStyle;rounded=0;orthogonalLoop=1;jettySize=auto;html=1;" edge="1" parent="dNxyNK7c78bLwvsdeMH5-11" source="emcT6BMZgjp_fwxbqr2T-3" target="dNxyNK7c78bLwvsdeMH5-14">
          <mxGeometry relative="1" as="geometry" />
        </mxCell>
        <mxCell id="emcT6BMZgjp_fwxbqr2T-6" style="edgeStyle=orthogonalEdgeStyle;rounded=0;orthogonalLoop=1;jettySize=auto;html=1;entryX=0.544;entryY=0.025;entryDx=0;entryDy=0;entryPerimeter=0;" edge="1" parent="dNxyNK7c78bLwvsdeMH5-11" source="emcT6BMZgjp_fwxbqr2T-3" target="FJVqnvM4m-iSo7Qv8YRc-3">
          <mxGeometry relative="1" as="geometry" />
        </mxCell>
        <mxCell id="emcT6BMZgjp_fwxbqr2T-7" style="edgeStyle=orthogonalEdgeStyle;rounded=0;orthogonalLoop=1;jettySize=auto;html=1;exitX=0.5;exitY=0;exitDx=0;exitDy=0;entryX=1;entryY=0.5;entryDx=0;entryDy=0;" edge="1" parent="dNxyNK7c78bLwvsdeMH5-11" source="emcT6BMZgjp_fwxbqr2T-3" target="dNxyNK7c78bLwvsdeMH5-12">
          <mxGeometry relative="1" as="geometry" />
        </mxCell>
        <mxCell id="gpCZ0KJSFsDUlAHGbTXS-1" style="edgeStyle=orthogonalEdgeStyle;rounded=0;orthogonalLoop=1;jettySize=auto;html=1;exitX=0;exitY=1;exitDx=0;exitDy=0;entryX=0.717;entryY=0.013;entryDx=0;entryDy=0;entryPerimeter=0;" edge="1" parent="dNxyNK7c78bLwvsdeMH5-11" source="emcT6BMZgjp_fwxbqr2T-3" target="wFjJHOMaN_K5iDLYZXIf-1">
          <mxGeometry relative="1" as="geometry" />
        </mxCell>
        <mxCell id="emcT6BMZgjp_fwxbqr2T-3" value="" style="whiteSpace=wrap;html=1;aspect=fixed;" vertex="1" parent="dNxyNK7c78bLwvsdeMH5-11">
          <mxGeometry x="400" y="540" width="240" height="240" as="geometry" />
        </mxCell>
        <mxCell id="vKMoUUsIH-jOBww32mAz-24" style="edgeStyle=orthogonalEdgeStyle;rounded=0;orthogonalLoop=1;jettySize=auto;html=1;" parent="dNxyNK7c78bLwvsdeMH5-11" source="dNxyNK7c78bLwvsdeMH5-12" target="vKMoUUsIH-jOBww32mAz-23" edge="1">
          <mxGeometry relative="1" as="geometry" />
        </mxCell>
        <UserObject label="University API" name="Tessa Miller" position="CFO" location="Office 1" email="me@example.com" placeholders="1" id="dNxyNK7c78bLwvsdeMH5-12">
          <mxCell style="label;image=https://cdn3.iconfinder.com/data/icons/user-avatars-1/512/users-3-128.png;whiteSpace=wrap;html=1;rounded=0;glass=0;treeMoving=1;treeFolding=1;" parent="dNxyNK7c78bLwvsdeMH5-11" vertex="1">
            <mxGeometry x="250" y="390" width="180" height="70" as="geometry" />
          </mxCell>
        </UserObject>
        <mxCell id="vKMoUUsIH-jOBww32mAz-14" style="edgeStyle=orthogonalEdgeStyle;rounded=0;orthogonalLoop=1;jettySize=auto;html=1;entryX=0;entryY=0.5;entryDx=0;entryDy=0;exitX=0.467;exitY=0.025;exitDx=0;exitDy=0;exitPerimeter=0;" parent="dNxyNK7c78bLwvsdeMH5-11" source="dNxyNK7c78bLwvsdeMH5-14" target="dNxyNK7c78bLwvsdeMH5-12" edge="1">
          <mxGeometry relative="1" as="geometry">
            <Array as="points">
              <mxPoint x="110" y="702" />
              <mxPoint x="110" y="425" />
            </Array>
          </mxGeometry>
        </mxCell>
        <UserObject label="Director" name="Edward Morrison" position="Brand Manager" location="Office 2" email="me@example.com" placeholders="1" link="data:page/id,CZ-gigCXfCaFHvZo74Yh" id="dNxyNK7c78bLwvsdeMH5-14">
          <mxCell style="label;image=https://cdn3.iconfinder.com/data/icons/user-avatars-1/512/users-10-3-128.png;whiteSpace=wrap;html=1;rounded=0;glass=0;treeFolding=1;treeMoving=1;" parent="dNxyNK7c78bLwvsdeMH5-11" vertex="1">
            <mxGeometry x="20" y="700" width="180" height="80" as="geometry" />
          </mxCell>
        </UserObject>
        <UserObject label="Teacher" name="Alison Donovan" position="System Admin" location="Office 3" email="me@example.com" placeholders="1" link="data:page/id,Kx6kt0CzBtaSZJC9BBTt" id="dNxyNK7c78bLwvsdeMH5-18">
          <mxCell style="label;image=https://cdn3.iconfinder.com/data/icons/user-avatars-1/512/users-2-128.png;whiteSpace=wrap;html=1;rounded=0;glass=0;" parent="dNxyNK7c78bLwvsdeMH5-11" vertex="1">
            <mxGeometry x="430" y="670" width="180" height="80" as="geometry" />
          </mxCell>
        </UserObject>
        <UserObject label="Student" name="Evan Valet" position="HR Director" location="Office 4" email="me@example.com" placeholders="1" link="data:page/id,Y287izFJMH8BAH8NYCFY" id="dNxyNK7c78bLwvsdeMH5-16">
          <mxCell style="label;image=https://cdn3.iconfinder.com/data/icons/user-avatars-1/512/users-9-2-128.png;whiteSpace=wrap;html=1;rounded=0;glass=0;treeFolding=1;treeMoving=1;" parent="dNxyNK7c78bLwvsdeMH5-11" vertex="1">
            <mxGeometry x="430" y="570" width="180" height="80" as="geometry" />
          </mxCell>
        </UserObject>
        <UserObject label="Authentication" name="Edward Morrison" position="Brand Manager" location="Office 2" email="me@example.com" placeholders="1" id="FJVqnvM4m-iSo7Qv8YRc-3">
          <mxCell style="label;image=https://cdn3.iconfinder.com/data/icons/user-avatars-1/512/users-10-3-128.png;whiteSpace=wrap;html=1;rounded=0;glass=0;treeFolding=1;treeMoving=1;" parent="dNxyNK7c78bLwvsdeMH5-11" vertex="1">
            <mxGeometry x="450" y="980" width="180" height="80" as="geometry" />
          </mxCell>
        </UserObject>
        <UserObject label="Database" name="Edward Morrison" position="Brand Manager" location="Office 2" email="me@example.com" placeholders="1" link="data:page/id,G3unG97RP3L-rtfcocSE" id="wFjJHOMaN_K5iDLYZXIf-1">
          <mxCell style="label;image=https://cdn3.iconfinder.com/data/icons/user-avatars-1/512/users-10-3-128.png;whiteSpace=wrap;html=1;rounded=0;glass=0;treeFolding=1;treeMoving=1;" parent="dNxyNK7c78bLwvsdeMH5-11" vertex="1">
            <mxGeometry x="34" y="1190" width="180" height="80" as="geometry" />
          </mxCell>
        </UserObject>
        <mxCell id="wFjJHOMaN_K5iDLYZXIf-2" value="" style="edgeStyle=orthogonalEdgeStyle;rounded=0;orthogonalLoop=1;jettySize=auto;html=1;entryX=1;entryY=0.5;entryDx=0;entryDy=0;" parent="dNxyNK7c78bLwvsdeMH5-11" source="FJVqnvM4m-iSo7Qv8YRc-3" target="wFjJHOMaN_K5iDLYZXIf-1" edge="1">
          <mxGeometry relative="1" as="geometry" />
        </mxCell>
        <mxCell id="vKMoUUsIH-jOBww32mAz-19" style="edgeStyle=orthogonalEdgeStyle;rounded=0;orthogonalLoop=1;jettySize=auto;html=1;exitX=0.5;exitY=1;exitDx=0;exitDy=0;" parent="dNxyNK7c78bLwvsdeMH5-11" source="dNxyNK7c78bLwvsdeMH5-14" target="wFjJHOMaN_K5iDLYZXIf-1" edge="1">
          <mxGeometry relative="1" as="geometry" />
        </mxCell>
        <UserObject label="University CLIENT" name="Tessa Miller" position="CFO" location="Office 1" email="me@example.com" placeholders="1" id="vKMoUUsIH-jOBww32mAz-23">
          <mxCell style="label;image=https://cdn3.iconfinder.com/data/icons/user-avatars-1/512/users-3-128.png;whiteSpace=wrap;html=1;rounded=0;glass=0;treeMoving=1;treeFolding=1;" parent="dNxyNK7c78bLwvsdeMH5-11" vertex="1">
            <mxGeometry x="260" y="140" width="180" height="70" as="geometry" />
          </mxCell>
        </UserObject>
      </root>
    </mxGraphModel>
  </diagram>
  <diagram id="CZ-gigCXfCaFHvZo74Yh" name="Director Flowchart">
    <mxGraphModel dx="1422" dy="766" grid="1" gridSize="10" guides="1" tooltips="1" connect="1" arrows="1" fold="1" page="1" pageScale="1" pageWidth="850" pageHeight="1100" math="0" shadow="0">
      <root>
        <mxCell id="0" />
        <mxCell id="1" parent="0" />
        <mxCell id="MF1vVjF2SDElAeN-p7jT-1" value="" style="edgeStyle=orthogonalEdgeStyle;rounded=0;orthogonalLoop=1;jettySize=auto;html=1;" parent="1" source="MF1vVjF2SDElAeN-p7jT-2" target="MF1vVjF2SDElAeN-p7jT-21" edge="1">
          <mxGeometry relative="1" as="geometry" />
        </mxCell>
        <mxCell id="MF1vVjF2SDElAeN-p7jT-2" value="Manager&lt;br&gt;" style="shape=umlActor;verticalLabelPosition=bottom;verticalAlign=top;html=1;outlineConnect=0;" parent="1" vertex="1">
          <mxGeometry x="230" y="110" width="30" height="60" as="geometry" />
        </mxCell>
        <mxCell id="MF1vVjF2SDElAeN-p7jT-3" style="edgeStyle=orthogonalEdgeStyle;rounded=0;orthogonalLoop=1;jettySize=auto;html=1;entryX=1;entryY=0.5;entryDx=0;entryDy=0;fillColor=#f8cecc;strokeColor=#b85450;exitX=0.97;exitY=0.613;exitDx=0;exitDy=0;exitPerimeter=0;" parent="1" source="MF1vVjF2SDElAeN-p7jT-7" target="MF1vVjF2SDElAeN-p7jT-9" edge="1">
          <mxGeometry relative="1" as="geometry">
            <Array as="points">
              <mxPoint x="420" y="549" />
              <mxPoint x="420" y="420" />
            </Array>
          </mxGeometry>
        </mxCell>
        <mxCell id="MF1vVjF2SDElAeN-p7jT-4" value="NO" style="edgeLabel;html=1;align=center;verticalAlign=middle;resizable=0;points=[];" parent="MF1vVjF2SDElAeN-p7jT-3" vertex="1" connectable="0">
          <mxGeometry x="0.0947" y="-4" relative="1" as="geometry">
            <mxPoint as="offset" />
          </mxGeometry>
        </mxCell>
        <mxCell id="MF1vVjF2SDElAeN-p7jT-5" style="edgeStyle=orthogonalEdgeStyle;rounded=0;orthogonalLoop=1;jettySize=auto;html=1;fillColor=#d5e8d4;strokeColor=#82b366;" parent="1" source="MF1vVjF2SDElAeN-p7jT-7" target="MF1vVjF2SDElAeN-p7jT-16" edge="1">
          <mxGeometry relative="1" as="geometry" />
        </mxCell>
        <mxCell id="MF1vVjF2SDElAeN-p7jT-6" value="YES" style="edgeLabel;html=1;align=center;verticalAlign=middle;resizable=0;points=[];" parent="MF1vVjF2SDElAeN-p7jT-5" vertex="1" connectable="0">
          <mxGeometry x="0.0154" y="4" relative="1" as="geometry">
            <mxPoint as="offset" />
          </mxGeometry>
        </mxCell>
        <mxCell id="MF1vVjF2SDElAeN-p7jT-7" value="Is DNI correct ?" style="rhombus;whiteSpace=wrap;html=1;shadow=0;fontFamily=Helvetica;fontSize=12;align=center;strokeWidth=1;spacing=6;spacingTop=-4;" parent="1" vertex="1">
          <mxGeometry x="280" y="500" width="100" height="80" as="geometry" />
        </mxCell>
        <mxCell id="MF1vVjF2SDElAeN-p7jT-8" style="edgeStyle=orthogonalEdgeStyle;rounded=0;orthogonalLoop=1;jettySize=auto;html=1;fontColor=#FF3333;" parent="1" source="MF1vVjF2SDElAeN-p7jT-9" target="MF1vVjF2SDElAeN-p7jT-7" edge="1">
          <mxGeometry relative="1" as="geometry" />
        </mxCell>
        <mxCell id="MF1vVjF2SDElAeN-p7jT-9" value="What is your DNI ?" style="rounded=1;whiteSpace=wrap;html=1;fontSize=12;glass=0;strokeWidth=1;shadow=0;" parent="1" vertex="1">
          <mxGeometry x="280" y="400" width="120" height="40" as="geometry" />
        </mxCell>
        <mxCell id="MF1vVjF2SDElAeN-p7jT-10" style="edgeStyle=orthogonalEdgeStyle;rounded=0;orthogonalLoop=1;jettySize=auto;html=1;exitX=0.5;exitY=1;exitDx=0;exitDy=0;fillColor=#d5e8d4;strokeColor=#82b366;" parent="1" source="MF1vVjF2SDElAeN-p7jT-14" target="MF1vVjF2SDElAeN-p7jT-17" edge="1">
          <mxGeometry relative="1" as="geometry">
            <mxPoint x="290" y="1030" as="targetPoint" />
            <Array as="points">
              <mxPoint x="300" y="910" />
              <mxPoint x="290" y="910" />
            </Array>
          </mxGeometry>
        </mxCell>
        <mxCell id="MF1vVjF2SDElAeN-p7jT-11" value="YES" style="edgeLabel;html=1;align=center;verticalAlign=middle;resizable=0;points=[];" parent="MF1vVjF2SDElAeN-p7jT-10" vertex="1" connectable="0">
          <mxGeometry x="0.5125" y="1" relative="1" as="geometry">
            <mxPoint as="offset" />
          </mxGeometry>
        </mxCell>
        <mxCell id="MF1vVjF2SDElAeN-p7jT-12" style="edgeStyle=orthogonalEdgeStyle;rounded=0;orthogonalLoop=1;jettySize=auto;html=1;entryX=1;entryY=0.5;entryDx=0;entryDy=0;exitX=1;exitY=0.5;exitDx=0;exitDy=0;fillColor=#f8cecc;strokeColor=#b85450;fontColor=#FF3333;" parent="1" source="MF1vVjF2SDElAeN-p7jT-14" target="MF1vVjF2SDElAeN-p7jT-16" edge="1">
          <mxGeometry relative="1" as="geometry" />
        </mxCell>
        <mxCell id="MF1vVjF2SDElAeN-p7jT-13" value="NO" style="edgeLabel;html=1;align=center;verticalAlign=middle;resizable=0;points=[];" parent="MF1vVjF2SDElAeN-p7jT-12" vertex="1" connectable="0">
          <mxGeometry x="-0.2353" y="-1" relative="1" as="geometry">
            <mxPoint as="offset" />
          </mxGeometry>
        </mxCell>
        <mxCell id="MF1vVjF2SDElAeN-p7jT-14" value="Is first name&amp;nbsp; and last name correct ?" style="rhombus;whiteSpace=wrap;html=1;shadow=0;fontFamily=Helvetica;fontSize=12;align=center;strokeWidth=1;spacing=6;spacingTop=-4;" parent="1" vertex="1">
          <mxGeometry x="230" y="740" width="140" height="110" as="geometry" />
        </mxCell>
        <mxCell id="MF1vVjF2SDElAeN-p7jT-15" style="edgeStyle=orthogonalEdgeStyle;rounded=0;orthogonalLoop=1;jettySize=auto;html=1;" parent="1" source="MF1vVjF2SDElAeN-p7jT-16" target="MF1vVjF2SDElAeN-p7jT-14" edge="1">
          <mxGeometry relative="1" as="geometry" />
        </mxCell>
        <mxCell id="MF1vVjF2SDElAeN-p7jT-16" value="What is your First name ?&lt;br&gt;What is your last name ?" style="rounded=1;whiteSpace=wrap;html=1;fontSize=12;glass=0;strokeWidth=1;shadow=0;" parent="1" vertex="1">
          <mxGeometry x="80" y="590" width="160" height="70" as="geometry" />
        </mxCell>
        <mxCell id="MF1vVjF2SDElAeN-p7jT-17" value="&lt;font color=&quot;#000000&quot;&gt;Edit the assignment&amp;nbsp;credit&amp;nbsp;&lt;/font&gt;" style="rounded=0;whiteSpace=wrap;html=1;fontColor=#FF3333;" parent="1" vertex="1">
          <mxGeometry x="240" y="910" width="120" height="60" as="geometry" />
        </mxCell>
        <mxCell id="MF1vVjF2SDElAeN-p7jT-18" value="" style="edgeStyle=orthogonalEdgeStyle;rounded=0;orthogonalLoop=1;jettySize=auto;html=1;" parent="1" source="MF1vVjF2SDElAeN-p7jT-21" target="MF1vVjF2SDElAeN-p7jT-9" edge="1">
          <mxGeometry relative="1" as="geometry" />
        </mxCell>
        <mxCell id="MF1vVjF2SDElAeN-p7jT-19" value="Login" style="edgeLabel;html=1;align=center;verticalAlign=middle;resizable=0;points=[];" parent="MF1vVjF2SDElAeN-p7jT-18" vertex="1" connectable="0">
          <mxGeometry x="0.26" y="4" relative="1" as="geometry">
            <mxPoint as="offset" />
          </mxGeometry>
        </mxCell>
        <mxCell id="MF1vVjF2SDElAeN-p7jT-20" value="" style="edgeStyle=orthogonalEdgeStyle;rounded=0;orthogonalLoop=1;jettySize=auto;html=1;" parent="1" source="MF1vVjF2SDElAeN-p7jT-21" target="MF1vVjF2SDElAeN-p7jT-22" edge="1">
          <mxGeometry relative="1" as="geometry" />
        </mxCell>
        <mxCell id="MF1vVjF2SDElAeN-p7jT-21" value="Login or Register" style="rhombus;whiteSpace=wrap;html=1;rounded=1;glass=0;strokeWidth=1;shadow=0;" parent="1" vertex="1">
          <mxGeometry x="300" y="220" width="80" height="80" as="geometry" />
        </mxCell>
        <mxCell id="MF1vVjF2SDElAeN-p7jT-22" value="Got to student or teacher flowchart" style="whiteSpace=wrap;html=1;rounded=1;glass=0;strokeWidth=1;shadow=0;" parent="1" vertex="1">
          <mxGeometry x="440" y="230" width="120" height="60" as="geometry" />
        </mxCell>
      </root>
    </mxGraphModel>
  </diagram>
  <diagram id="Kx6kt0CzBtaSZJC9BBTt" name="Teacher FLowchart">
    <mxGraphModel dx="1422" dy="766" grid="1" gridSize="10" guides="1" tooltips="1" connect="1" arrows="1" fold="1" page="1" pageScale="1" pageWidth="850" pageHeight="1100" math="0" shadow="0">
      <root>
        <mxCell id="0" />
        <mxCell id="1" parent="0" />
        <mxCell id="jbfztXsMto64GIMZI36D-1" value="" style="edgeStyle=orthogonalEdgeStyle;rounded=0;orthogonalLoop=1;jettySize=auto;html=1;" parent="1" source="jbfztXsMto64GIMZI36D-2" target="jbfztXsMto64GIMZI36D-21" edge="1">
          <mxGeometry relative="1" as="geometry" />
        </mxCell>
        <mxCell id="jbfztXsMto64GIMZI36D-2" value="Teacher" style="shape=umlActor;verticalLabelPosition=bottom;verticalAlign=top;html=1;outlineConnect=0;" parent="1" vertex="1">
          <mxGeometry x="240" y="100" width="30" height="60" as="geometry" />
        </mxCell>
        <mxCell id="jbfztXsMto64GIMZI36D-3" style="edgeStyle=orthogonalEdgeStyle;rounded=0;orthogonalLoop=1;jettySize=auto;html=1;entryX=1;entryY=0.5;entryDx=0;entryDy=0;fillColor=#f8cecc;strokeColor=#b85450;exitX=0.97;exitY=0.613;exitDx=0;exitDy=0;exitPerimeter=0;" parent="1" source="jbfztXsMto64GIMZI36D-7" target="jbfztXsMto64GIMZI36D-9" edge="1">
          <mxGeometry relative="1" as="geometry">
            <Array as="points">
              <mxPoint x="506.5" y="569" />
              <mxPoint x="506.5" y="440" />
            </Array>
          </mxGeometry>
        </mxCell>
        <mxCell id="jbfztXsMto64GIMZI36D-4" value="NO" style="edgeLabel;html=1;align=center;verticalAlign=middle;resizable=0;points=[];" parent="jbfztXsMto64GIMZI36D-3" vertex="1" connectable="0">
          <mxGeometry x="0.0947" y="-4" relative="1" as="geometry">
            <mxPoint as="offset" />
          </mxGeometry>
        </mxCell>
        <mxCell id="jbfztXsMto64GIMZI36D-5" style="edgeStyle=orthogonalEdgeStyle;rounded=0;orthogonalLoop=1;jettySize=auto;html=1;fillColor=#d5e8d4;strokeColor=#82b366;" parent="1" source="jbfztXsMto64GIMZI36D-7" target="jbfztXsMto64GIMZI36D-16" edge="1">
          <mxGeometry relative="1" as="geometry" />
        </mxCell>
        <mxCell id="jbfztXsMto64GIMZI36D-6" value="YES" style="edgeLabel;html=1;align=center;verticalAlign=middle;resizable=0;points=[];" parent="jbfztXsMto64GIMZI36D-5" vertex="1" connectable="0">
          <mxGeometry x="0.0154" y="4" relative="1" as="geometry">
            <mxPoint as="offset" />
          </mxGeometry>
        </mxCell>
        <mxCell id="jbfztXsMto64GIMZI36D-7" value="Is DNI correct ?" style="rhombus;whiteSpace=wrap;html=1;shadow=0;fontFamily=Helvetica;fontSize=12;align=center;strokeWidth=1;spacing=6;spacingTop=-4;" parent="1" vertex="1">
          <mxGeometry x="366.5" y="520" width="100" height="80" as="geometry" />
        </mxCell>
        <mxCell id="jbfztXsMto64GIMZI36D-8" style="edgeStyle=orthogonalEdgeStyle;rounded=0;orthogonalLoop=1;jettySize=auto;html=1;fontColor=#FF3333;" parent="1" source="jbfztXsMto64GIMZI36D-9" target="jbfztXsMto64GIMZI36D-7" edge="1">
          <mxGeometry relative="1" as="geometry" />
        </mxCell>
        <mxCell id="jbfztXsMto64GIMZI36D-9" value="What is your DNI ?" style="rounded=1;whiteSpace=wrap;html=1;fontSize=12;glass=0;strokeWidth=1;shadow=0;" parent="1" vertex="1">
          <mxGeometry x="366.5" y="420" width="120" height="40" as="geometry" />
        </mxCell>
        <mxCell id="jbfztXsMto64GIMZI36D-10" style="edgeStyle=orthogonalEdgeStyle;rounded=0;orthogonalLoop=1;jettySize=auto;html=1;entryX=1;entryY=0.5;entryDx=0;entryDy=0;exitX=1;exitY=0.5;exitDx=0;exitDy=0;fillColor=#f8cecc;strokeColor=#b85450;fontColor=#FF3333;" parent="1" source="jbfztXsMto64GIMZI36D-14" target="jbfztXsMto64GIMZI36D-16" edge="1">
          <mxGeometry relative="1" as="geometry" />
        </mxCell>
        <mxCell id="jbfztXsMto64GIMZI36D-11" value="NO" style="edgeLabel;html=1;align=center;verticalAlign=middle;resizable=0;points=[];" parent="jbfztXsMto64GIMZI36D-10" vertex="1" connectable="0">
          <mxGeometry x="-0.2353" y="-1" relative="1" as="geometry">
            <mxPoint as="offset" />
          </mxGeometry>
        </mxCell>
        <mxCell id="jbfztXsMto64GIMZI36D-12" style="edgeStyle=orthogonalEdgeStyle;rounded=0;orthogonalLoop=1;jettySize=auto;html=1;entryX=0.25;entryY=0;entryDx=0;entryDy=0;exitX=0.5;exitY=1;exitDx=0;exitDy=0;fillColor=#d5e8d4;strokeColor=#82b366;" parent="1" source="jbfztXsMto64GIMZI36D-14" target="jbfztXsMto64GIMZI36D-38" edge="1">
          <mxGeometry relative="1" as="geometry" />
        </mxCell>
        <mxCell id="jbfztXsMto64GIMZI36D-13" value="YES" style="edgeLabel;html=1;align=center;verticalAlign=middle;resizable=0;points=[];" parent="jbfztXsMto64GIMZI36D-12" vertex="1" connectable="0">
          <mxGeometry x="-0.1909" y="-3" relative="1" as="geometry">
            <mxPoint x="1" as="offset" />
          </mxGeometry>
        </mxCell>
        <mxCell id="jbfztXsMto64GIMZI36D-14" value="Is first name&amp;nbsp; and last name correct ?" style="rhombus;whiteSpace=wrap;html=1;shadow=0;fontFamily=Helvetica;fontSize=12;align=center;strokeWidth=1;spacing=6;spacingTop=-4;" parent="1" vertex="1">
          <mxGeometry x="316.5" y="760" width="140" height="110" as="geometry" />
        </mxCell>
        <mxCell id="jbfztXsMto64GIMZI36D-15" style="edgeStyle=orthogonalEdgeStyle;rounded=0;orthogonalLoop=1;jettySize=auto;html=1;" parent="1" source="jbfztXsMto64GIMZI36D-16" target="jbfztXsMto64GIMZI36D-14" edge="1">
          <mxGeometry relative="1" as="geometry" />
        </mxCell>
        <mxCell id="jbfztXsMto64GIMZI36D-16" value="What is your First name ?&lt;br&gt;What is your last name ?" style="rounded=1;whiteSpace=wrap;html=1;fontSize=12;glass=0;strokeWidth=1;shadow=0;" parent="1" vertex="1">
          <mxGeometry x="166.5" y="610" width="160" height="70" as="geometry" />
        </mxCell>
        <mxCell id="jbfztXsMto64GIMZI36D-17" value="" style="edgeStyle=orthogonalEdgeStyle;rounded=0;orthogonalLoop=1;jettySize=auto;html=1;" parent="1" source="jbfztXsMto64GIMZI36D-21" target="jbfztXsMto64GIMZI36D-9" edge="1">
          <mxGeometry relative="1" as="geometry" />
        </mxCell>
        <mxCell id="jbfztXsMto64GIMZI36D-18" value="LOGIN" style="edgeLabel;html=1;align=center;verticalAlign=middle;resizable=0;points=[];" parent="jbfztXsMto64GIMZI36D-17" vertex="1" connectable="0">
          <mxGeometry x="-0.2833" y="1" relative="1" as="geometry">
            <mxPoint as="offset" />
          </mxGeometry>
        </mxCell>
        <mxCell id="jbfztXsMto64GIMZI36D-19" value="" style="edgeStyle=orthogonalEdgeStyle;rounded=0;orthogonalLoop=1;jettySize=auto;html=1;entryX=0;entryY=0.5;entryDx=0;entryDy=0;" parent="1" source="jbfztXsMto64GIMZI36D-21" target="jbfztXsMto64GIMZI36D-26" edge="1">
          <mxGeometry relative="1" as="geometry">
            <mxPoint x="550" y="270" as="targetPoint" />
            <Array as="points" />
          </mxGeometry>
        </mxCell>
        <mxCell id="jbfztXsMto64GIMZI36D-20" value="REGISTER" style="edgeLabel;html=1;align=center;verticalAlign=middle;resizable=0;points=[];" parent="jbfztXsMto64GIMZI36D-19" vertex="1" connectable="0">
          <mxGeometry x="-0.6842" y="4" relative="1" as="geometry">
            <mxPoint x="34" y="4" as="offset" />
          </mxGeometry>
        </mxCell>
        <mxCell id="jbfztXsMto64GIMZI36D-21" value="Login or Register" style="rhombus;whiteSpace=wrap;html=1;rounded=1;glass=0;strokeWidth=1;shadow=0;" parent="1" vertex="1">
          <mxGeometry x="376.5" y="230" width="80" height="80" as="geometry" />
        </mxCell>
        <mxCell id="jbfztXsMto64GIMZI36D-22" value="" style="edgeStyle=orthogonalEdgeStyle;rounded=0;orthogonalLoop=1;jettySize=auto;html=1;" parent="1" source="jbfztXsMto64GIMZI36D-26" target="jbfztXsMto64GIMZI36D-27" edge="1">
          <mxGeometry relative="1" as="geometry" />
        </mxCell>
        <mxCell id="jbfztXsMto64GIMZI36D-23" value="STUDENT" style="edgeLabel;html=1;align=center;verticalAlign=middle;resizable=0;points=[];" parent="jbfztXsMto64GIMZI36D-22" vertex="1" connectable="0">
          <mxGeometry x="0.1556" relative="1" as="geometry">
            <mxPoint as="offset" />
          </mxGeometry>
        </mxCell>
        <mxCell id="jbfztXsMto64GIMZI36D-24" value="" style="edgeStyle=orthogonalEdgeStyle;rounded=0;orthogonalLoop=1;jettySize=auto;html=1;" parent="1" source="jbfztXsMto64GIMZI36D-26" target="jbfztXsMto64GIMZI36D-29" edge="1">
          <mxGeometry relative="1" as="geometry">
            <Array as="points">
              <mxPoint x="700" y="390" />
              <mxPoint x="700" y="390" />
            </Array>
          </mxGeometry>
        </mxCell>
        <mxCell id="jbfztXsMto64GIMZI36D-25" value="TEACHER" style="edgeLabel;html=1;align=center;verticalAlign=middle;resizable=0;points=[];" parent="jbfztXsMto64GIMZI36D-24" vertex="1" connectable="0">
          <mxGeometry x="-0.3037" relative="1" as="geometry">
            <mxPoint as="offset" />
          </mxGeometry>
        </mxCell>
        <mxCell id="jbfztXsMto64GIMZI36D-26" value="Are you a student or a teacher" style="rhombus;whiteSpace=wrap;html=1;" parent="1" vertex="1">
          <mxGeometry x="620" y="185" width="160" height="170" as="geometry" />
        </mxCell>
        <mxCell id="jbfztXsMto64GIMZI36D-27" value="See Student flowchart" style="whiteSpace=wrap;html=1;" parent="1" vertex="1">
          <mxGeometry x="960" y="240" width="120" height="60" as="geometry" />
        </mxCell>
        <mxCell id="jbfztXsMto64GIMZI36D-28" style="edgeStyle=orthogonalEdgeStyle;rounded=0;orthogonalLoop=1;jettySize=auto;html=1;entryX=0.75;entryY=0;entryDx=0;entryDy=0;" parent="1" source="jbfztXsMto64GIMZI36D-29" target="jbfztXsMto64GIMZI36D-38" edge="1">
          <mxGeometry relative="1" as="geometry" />
        </mxCell>
        <mxCell id="jbfztXsMto64GIMZI36D-29" value="What is your DNI / NIE ?&lt;br&gt;&lt;br&gt;What is your first&amp;nbsp; name ?&lt;br&gt;&lt;br&gt;What is your last&amp;nbsp; name ?&lt;br&gt;&lt;span style=&quot;background-color: initial;&quot;&gt;&lt;br&gt;&lt;/span&gt;What is your assignments&lt;span style=&quot;background-color: initial;&quot;&gt;&amp;nbsp;A + a number ?&lt;/span&gt;&lt;span style=&quot;background-color: initial;&quot;&gt;&lt;br&gt;&lt;/span&gt;" style="whiteSpace=wrap;html=1;" parent="1" vertex="1">
          <mxGeometry x="640" y="490" width="170" height="170" as="geometry" />
        </mxCell>
        <mxCell id="jbfztXsMto64GIMZI36D-30" value="Can see list of student" style="whiteSpace=wrap;html=1;" parent="1" vertex="1">
          <mxGeometry x="340" y="1109" width="120" height="60" as="geometry" />
        </mxCell>
        <mxCell id="jbfztXsMto64GIMZI36D-31" value="Can approve or reject student registration" style="whiteSpace=wrap;html=1;" parent="1" vertex="1">
          <mxGeometry x="510" y="1109" width="120" height="60" as="geometry" />
        </mxCell>
        <mxCell id="jbfztXsMto64GIMZI36D-32" value="" style="edgeStyle=orthogonalEdgeStyle;rounded=0;orthogonalLoop=1;jettySize=auto;html=1;" parent="1" source="jbfztXsMto64GIMZI36D-34" target="jbfztXsMto64GIMZI36D-39" edge="1">
          <mxGeometry relative="1" as="geometry" />
        </mxCell>
        <mxCell id="jbfztXsMto64GIMZI36D-33" value="" style="edgeStyle=orthogonalEdgeStyle;rounded=0;orthogonalLoop=1;jettySize=auto;html=1;" parent="1" source="jbfztXsMto64GIMZI36D-34" target="jbfztXsMto64GIMZI36D-40" edge="1">
          <mxGeometry relative="1" as="geometry" />
        </mxCell>
        <mxCell id="jbfztXsMto64GIMZI36D-34" value="Can create student profile" style="whiteSpace=wrap;html=1;" parent="1" vertex="1">
          <mxGeometry x="680" y="1109" width="120" height="60" as="geometry" />
        </mxCell>
        <mxCell id="jbfztXsMto64GIMZI36D-35" style="edgeStyle=orthogonalEdgeStyle;rounded=0;orthogonalLoop=1;jettySize=auto;html=1;entryX=0.25;entryY=0;entryDx=0;entryDy=0;" parent="1" source="jbfztXsMto64GIMZI36D-38" target="jbfztXsMto64GIMZI36D-30" edge="1">
          <mxGeometry relative="1" as="geometry" />
        </mxCell>
        <mxCell id="jbfztXsMto64GIMZI36D-36" value="" style="edgeStyle=orthogonalEdgeStyle;rounded=0;orthogonalLoop=1;jettySize=auto;html=1;" parent="1" source="jbfztXsMto64GIMZI36D-38" target="jbfztXsMto64GIMZI36D-31" edge="1">
          <mxGeometry relative="1" as="geometry" />
        </mxCell>
        <mxCell id="jbfztXsMto64GIMZI36D-37" style="edgeStyle=orthogonalEdgeStyle;rounded=0;orthogonalLoop=1;jettySize=auto;html=1;" parent="1" source="jbfztXsMto64GIMZI36D-38" target="jbfztXsMto64GIMZI36D-34" edge="1">
          <mxGeometry relative="1" as="geometry" />
        </mxCell>
        <mxCell id="jbfztXsMto64GIMZI36D-38" value="connected" style="whiteSpace=wrap;html=1;" parent="1" vertex="1">
          <mxGeometry x="470" y="990" width="150" height="70" as="geometry" />
        </mxCell>
        <mxCell id="jbfztXsMto64GIMZI36D-39" value="Add student manually:&lt;br&gt;&lt;br&gt;DNI / NIE ? :&lt;br&gt;Firs Name ? :&lt;br&gt;Last Name ? :&lt;br&gt;Birthday ? :" style="whiteSpace=wrap;html=1;" parent="1" vertex="1">
          <mxGeometry x="680" y="1249" width="150" height="121" as="geometry" />
        </mxCell>
        <mxCell id="jbfztXsMto64GIMZI36D-40" value="add student by csv file" style="whiteSpace=wrap;html=1;" parent="1" vertex="1">
          <mxGeometry x="880" y="1109" width="120" height="60" as="geometry" />
        </mxCell>
      </root>
    </mxGraphModel>
  </diagram>
  <diagram id="Y287izFJMH8BAH8NYCFY" name="Student Flowchart">
    <mxGraphModel dx="1422" dy="766" grid="1" gridSize="10" guides="1" tooltips="1" connect="1" arrows="1" fold="1" page="1" pageScale="1" pageWidth="850" pageHeight="1100" math="0" shadow="0">
      <root>
        <mxCell id="0" />
        <mxCell id="1" parent="0" />
        <mxCell id="RSsJzvKsAqPbumT_QY3e-1" value="" style="edgeStyle=orthogonalEdgeStyle;rounded=0;orthogonalLoop=1;jettySize=auto;html=1;" parent="1" source="RSsJzvKsAqPbumT_QY3e-2" target="RSsJzvKsAqPbumT_QY3e-28" edge="1">
          <mxGeometry relative="1" as="geometry">
            <mxPoint x="410" y="50" as="sourcePoint" />
          </mxGeometry>
        </mxCell>
        <mxCell id="RSsJzvKsAqPbumT_QY3e-2" value="Student" style="shape=umlActor;verticalLabelPosition=bottom;verticalAlign=top;html=1;outlineConnect=0;" parent="1" vertex="1">
          <mxGeometry x="316.5" y="90" width="30" height="60" as="geometry" />
        </mxCell>
        <mxCell id="RSsJzvKsAqPbumT_QY3e-3" style="edgeStyle=orthogonalEdgeStyle;rounded=0;orthogonalLoop=1;jettySize=auto;html=1;entryX=1;entryY=0.5;entryDx=0;entryDy=0;fillColor=#f8cecc;strokeColor=#b85450;exitX=0.97;exitY=0.613;exitDx=0;exitDy=0;exitPerimeter=0;" parent="1" source="RSsJzvKsAqPbumT_QY3e-7" target="RSsJzvKsAqPbumT_QY3e-9" edge="1">
          <mxGeometry relative="1" as="geometry">
            <Array as="points">
              <mxPoint x="496.5" y="559" />
              <mxPoint x="496.5" y="430" />
            </Array>
          </mxGeometry>
        </mxCell>
        <mxCell id="RSsJzvKsAqPbumT_QY3e-4" value="NO" style="edgeLabel;html=1;align=center;verticalAlign=middle;resizable=0;points=[];" parent="RSsJzvKsAqPbumT_QY3e-3" vertex="1" connectable="0">
          <mxGeometry x="0.0947" y="-4" relative="1" as="geometry">
            <mxPoint as="offset" />
          </mxGeometry>
        </mxCell>
        <mxCell id="RSsJzvKsAqPbumT_QY3e-5" style="edgeStyle=orthogonalEdgeStyle;rounded=0;orthogonalLoop=1;jettySize=auto;html=1;fillColor=#d5e8d4;strokeColor=#82b366;" parent="1" source="RSsJzvKsAqPbumT_QY3e-7" target="RSsJzvKsAqPbumT_QY3e-15" edge="1">
          <mxGeometry relative="1" as="geometry" />
        </mxCell>
        <mxCell id="RSsJzvKsAqPbumT_QY3e-6" value="YES" style="edgeLabel;html=1;align=center;verticalAlign=middle;resizable=0;points=[];" parent="RSsJzvKsAqPbumT_QY3e-5" vertex="1" connectable="0">
          <mxGeometry x="0.0154" y="4" relative="1" as="geometry">
            <mxPoint as="offset" />
          </mxGeometry>
        </mxCell>
        <mxCell id="RSsJzvKsAqPbumT_QY3e-7" value="Is DNI correct ?" style="rhombus;whiteSpace=wrap;html=1;shadow=0;fontFamily=Helvetica;fontSize=12;align=center;strokeWidth=1;spacing=6;spacingTop=-4;" parent="1" vertex="1">
          <mxGeometry x="356.5" y="510" width="100" height="80" as="geometry" />
        </mxCell>
        <mxCell id="RSsJzvKsAqPbumT_QY3e-8" style="edgeStyle=orthogonalEdgeStyle;rounded=0;orthogonalLoop=1;jettySize=auto;html=1;fontColor=#FF3333;" parent="1" source="RSsJzvKsAqPbumT_QY3e-9" target="RSsJzvKsAqPbumT_QY3e-7" edge="1">
          <mxGeometry relative="1" as="geometry" />
        </mxCell>
        <mxCell id="RSsJzvKsAqPbumT_QY3e-9" value="What is your DNI ?" style="rounded=1;whiteSpace=wrap;html=1;fontSize=12;glass=0;strokeWidth=1;shadow=0;" parent="1" vertex="1">
          <mxGeometry x="356.5" y="410" width="120" height="40" as="geometry" />
        </mxCell>
        <mxCell id="RSsJzvKsAqPbumT_QY3e-10" style="edgeStyle=orthogonalEdgeStyle;rounded=0;orthogonalLoop=1;jettySize=auto;html=1;entryX=1;entryY=0.5;entryDx=0;entryDy=0;exitX=1;exitY=0.5;exitDx=0;exitDy=0;fillColor=#f8cecc;strokeColor=#b85450;fontColor=#FF3333;" parent="1" source="RSsJzvKsAqPbumT_QY3e-13" target="RSsJzvKsAqPbumT_QY3e-15" edge="1">
          <mxGeometry relative="1" as="geometry" />
        </mxCell>
        <mxCell id="RSsJzvKsAqPbumT_QY3e-11" value="NO" style="edgeLabel;html=1;align=center;verticalAlign=middle;resizable=0;points=[];" parent="RSsJzvKsAqPbumT_QY3e-10" vertex="1" connectable="0">
          <mxGeometry x="-0.2353" y="-1" relative="1" as="geometry">
            <mxPoint as="offset" />
          </mxGeometry>
        </mxCell>
        <mxCell id="RSsJzvKsAqPbumT_QY3e-12" value="YES" style="edgeStyle=orthogonalEdgeStyle;rounded=0;orthogonalLoop=1;jettySize=auto;html=1;fillColor=#d5e8d4;strokeColor=#82b366;" parent="1" source="RSsJzvKsAqPbumT_QY3e-13" target="RSsJzvKsAqPbumT_QY3e-44" edge="1">
          <mxGeometry relative="1" as="geometry" />
        </mxCell>
        <mxCell id="RSsJzvKsAqPbumT_QY3e-13" value="Is first name&amp;nbsp; and last name correct ?" style="rhombus;whiteSpace=wrap;html=1;shadow=0;fontFamily=Helvetica;fontSize=12;align=center;strokeWidth=1;spacing=6;spacingTop=-4;" parent="1" vertex="1">
          <mxGeometry x="306.5" y="750" width="140" height="110" as="geometry" />
        </mxCell>
        <mxCell id="RSsJzvKsAqPbumT_QY3e-14" style="edgeStyle=orthogonalEdgeStyle;rounded=0;orthogonalLoop=1;jettySize=auto;html=1;" parent="1" source="RSsJzvKsAqPbumT_QY3e-15" target="RSsJzvKsAqPbumT_QY3e-13" edge="1">
          <mxGeometry relative="1" as="geometry" />
        </mxCell>
        <mxCell id="RSsJzvKsAqPbumT_QY3e-15" value="What is your First name ?&lt;br&gt;What is your last name ?" style="rounded=1;whiteSpace=wrap;html=1;fontSize=12;glass=0;strokeWidth=1;shadow=0;" parent="1" vertex="1">
          <mxGeometry x="156.5" y="600" width="160" height="70" as="geometry" />
        </mxCell>
        <mxCell id="RSsJzvKsAqPbumT_QY3e-16" value="" style="edgeStyle=orthogonalEdgeStyle;rounded=0;orthogonalLoop=1;jettySize=auto;html=1;fillColor=#f8cecc;strokeColor=#b85450;" parent="1" source="RSsJzvKsAqPbumT_QY3e-20" edge="1">
          <mxGeometry relative="1" as="geometry">
            <mxPoint x="210" y="1280" as="targetPoint" />
          </mxGeometry>
        </mxCell>
        <mxCell id="RSsJzvKsAqPbumT_QY3e-17" value="NO" style="edgeLabel;html=1;align=center;verticalAlign=middle;resizable=0;points=[];" parent="RSsJzvKsAqPbumT_QY3e-16" vertex="1" connectable="0">
          <mxGeometry x="-0.2" y="1" relative="1" as="geometry">
            <mxPoint as="offset" />
          </mxGeometry>
        </mxCell>
        <mxCell id="RSsJzvKsAqPbumT_QY3e-18" value="" style="edgeStyle=orthogonalEdgeStyle;rounded=0;orthogonalLoop=1;jettySize=auto;html=1;" parent="1" source="RSsJzvKsAqPbumT_QY3e-20" target="RSsJzvKsAqPbumT_QY3e-23" edge="1">
          <mxGeometry relative="1" as="geometry" />
        </mxCell>
        <mxCell id="RSsJzvKsAqPbumT_QY3e-19" value="" style="edgeStyle=orthogonalEdgeStyle;rounded=0;orthogonalLoop=1;jettySize=auto;html=1;" parent="1" source="RSsJzvKsAqPbumT_QY3e-20" target="RSsJzvKsAqPbumT_QY3e-39" edge="1">
          <mxGeometry relative="1" as="geometry" />
        </mxCell>
        <mxCell id="RSsJzvKsAqPbumT_QY3e-20" value="Does your apply has been approve ?" style="rhombus;whiteSpace=wrap;html=1;" parent="1" vertex="1">
          <mxGeometry x="310" y="1220" width="150" height="120" as="geometry" />
        </mxCell>
        <mxCell id="RSsJzvKsAqPbumT_QY3e-21" value="Please wait for a teacher&#39;s approval" style="whiteSpace=wrap;html=1;" parent="1" vertex="1">
          <mxGeometry x="90" y="1250" width="120" height="60" as="geometry" />
        </mxCell>
        <mxCell id="RSsJzvKsAqPbumT_QY3e-22" value="" style="edgeStyle=orthogonalEdgeStyle;rounded=0;orthogonalLoop=1;jettySize=auto;html=1;" parent="1" source="RSsJzvKsAqPbumT_QY3e-23" target="RSsJzvKsAqPbumT_QY3e-50" edge="1">
          <mxGeometry relative="1" as="geometry" />
        </mxCell>
        <mxCell id="RSsJzvKsAqPbumT_QY3e-23" value="Your apply has been reject" style="whiteSpace=wrap;html=1;" parent="1" vertex="1">
          <mxGeometry x="555" y="1250" width="120" height="60" as="geometry" />
        </mxCell>
        <mxCell id="RSsJzvKsAqPbumT_QY3e-24" value="" style="edgeStyle=orthogonalEdgeStyle;rounded=0;orthogonalLoop=1;jettySize=auto;html=1;" parent="1" source="RSsJzvKsAqPbumT_QY3e-28" target="RSsJzvKsAqPbumT_QY3e-9" edge="1">
          <mxGeometry relative="1" as="geometry" />
        </mxCell>
        <mxCell id="RSsJzvKsAqPbumT_QY3e-25" value="LOGIN" style="edgeLabel;html=1;align=center;verticalAlign=middle;resizable=0;points=[];" parent="RSsJzvKsAqPbumT_QY3e-24" vertex="1" connectable="0">
          <mxGeometry x="-0.2833" y="1" relative="1" as="geometry">
            <mxPoint as="offset" />
          </mxGeometry>
        </mxCell>
        <mxCell id="RSsJzvKsAqPbumT_QY3e-26" value="" style="edgeStyle=orthogonalEdgeStyle;rounded=0;orthogonalLoop=1;jettySize=auto;html=1;entryX=0;entryY=0.5;entryDx=0;entryDy=0;" parent="1" source="RSsJzvKsAqPbumT_QY3e-28" target="RSsJzvKsAqPbumT_QY3e-33" edge="1">
          <mxGeometry relative="1" as="geometry">
            <mxPoint x="540" y="260" as="targetPoint" />
            <Array as="points" />
          </mxGeometry>
        </mxCell>
        <mxCell id="RSsJzvKsAqPbumT_QY3e-27" value="REGISTER" style="edgeLabel;html=1;align=center;verticalAlign=middle;resizable=0;points=[];" parent="RSsJzvKsAqPbumT_QY3e-26" vertex="1" connectable="0">
          <mxGeometry x="-0.6842" y="4" relative="1" as="geometry">
            <mxPoint x="34" y="4" as="offset" />
          </mxGeometry>
        </mxCell>
        <mxCell id="RSsJzvKsAqPbumT_QY3e-28" value="Login or Register" style="rhombus;whiteSpace=wrap;html=1;rounded=1;glass=0;strokeWidth=1;shadow=0;" parent="1" vertex="1">
          <mxGeometry x="366.5" y="220" width="80" height="80" as="geometry" />
        </mxCell>
        <mxCell id="RSsJzvKsAqPbumT_QY3e-29" value="" style="edgeStyle=orthogonalEdgeStyle;rounded=0;orthogonalLoop=1;jettySize=auto;html=1;" parent="1" source="RSsJzvKsAqPbumT_QY3e-33" target="RSsJzvKsAqPbumT_QY3e-34" edge="1">
          <mxGeometry relative="1" as="geometry" />
        </mxCell>
        <mxCell id="RSsJzvKsAqPbumT_QY3e-30" value="TEACHER" style="edgeLabel;html=1;align=center;verticalAlign=middle;resizable=0;points=[];" parent="RSsJzvKsAqPbumT_QY3e-29" vertex="1" connectable="0">
          <mxGeometry x="0.1556" relative="1" as="geometry">
            <mxPoint as="offset" />
          </mxGeometry>
        </mxCell>
        <mxCell id="RSsJzvKsAqPbumT_QY3e-31" value="" style="edgeStyle=orthogonalEdgeStyle;rounded=0;orthogonalLoop=1;jettySize=auto;html=1;" parent="1" source="RSsJzvKsAqPbumT_QY3e-33" target="RSsJzvKsAqPbumT_QY3e-36" edge="1">
          <mxGeometry relative="1" as="geometry">
            <Array as="points">
              <mxPoint x="690" y="380" />
              <mxPoint x="690" y="380" />
            </Array>
          </mxGeometry>
        </mxCell>
        <mxCell id="RSsJzvKsAqPbumT_QY3e-32" value="STUDENT" style="edgeLabel;html=1;align=center;verticalAlign=middle;resizable=0;points=[];" parent="RSsJzvKsAqPbumT_QY3e-31" vertex="1" connectable="0">
          <mxGeometry x="-0.3037" relative="1" as="geometry">
            <mxPoint as="offset" />
          </mxGeometry>
        </mxCell>
        <mxCell id="RSsJzvKsAqPbumT_QY3e-33" value="Are you a student or a teacher" style="rhombus;whiteSpace=wrap;html=1;" parent="1" vertex="1">
          <mxGeometry x="610" y="175" width="160" height="170" as="geometry" />
        </mxCell>
        <mxCell id="RSsJzvKsAqPbumT_QY3e-34" value="See Teacher flowchart" style="whiteSpace=wrap;html=1;" parent="1" vertex="1">
          <mxGeometry x="950" y="230" width="120" height="60" as="geometry" />
        </mxCell>
        <mxCell id="RSsJzvKsAqPbumT_QY3e-35" value="" style="edgeStyle=orthogonalEdgeStyle;rounded=0;orthogonalLoop=1;jettySize=auto;html=1;" parent="1" source="RSsJzvKsAqPbumT_QY3e-36" target="RSsJzvKsAqPbumT_QY3e-38" edge="1">
          <mxGeometry relative="1" as="geometry" />
        </mxCell>
        <mxCell id="RSsJzvKsAqPbumT_QY3e-36" value="What is your DNI / NIE ?&lt;br&gt;&lt;br&gt;What is your first&amp;nbsp; name ?&lt;br&gt;&lt;br&gt;What is your last&amp;nbsp; name ?&lt;br&gt;&lt;br&gt;What is your study field&lt;span style=&quot;background-color: initial;&quot;&gt;&amp;nbsp;SF1 or SF2 ?&lt;br&gt;&lt;br&gt;&lt;/span&gt;What is your assignments&lt;span style=&quot;background-color: initial;&quot;&gt;&amp;nbsp;A + a number ? (minimum 17 credits&amp;nbsp;)&lt;/span&gt;&lt;span style=&quot;background-color: initial;&quot;&gt;&lt;br&gt;&lt;/span&gt;" style="whiteSpace=wrap;html=1;" parent="1" vertex="1">
          <mxGeometry x="630" y="480" width="170" height="170" as="geometry" />
        </mxCell>
        <mxCell id="RSsJzvKsAqPbumT_QY3e-37" value="" style="edgeStyle=orthogonalEdgeStyle;rounded=0;orthogonalLoop=1;jettySize=auto;html=1;" parent="1" source="RSsJzvKsAqPbumT_QY3e-38" target="RSsJzvKsAqPbumT_QY3e-45" edge="1">
          <mxGeometry relative="1" as="geometry" />
        </mxCell>
        <mxCell id="RSsJzvKsAqPbumT_QY3e-38" value="Wait&amp;nbsp; a teacher to approve" style="whiteSpace=wrap;html=1;" parent="1" vertex="1">
          <mxGeometry x="655" y="785" width="120" height="60" as="geometry" />
        </mxCell>
        <mxCell id="RSsJzvKsAqPbumT_QY3e-39" value="Can see your information and your credit number" style="whiteSpace=wrap;html=1;" parent="1" vertex="1">
          <mxGeometry x="325" y="1450" width="120" height="60" as="geometry" />
        </mxCell>
        <mxCell id="RSsJzvKsAqPbumT_QY3e-40" style="edgeStyle=orthogonalEdgeStyle;rounded=0;orthogonalLoop=1;jettySize=auto;html=1;entryX=0.5;entryY=0;entryDx=0;entryDy=0;fillColor=#d5e8d4;strokeColor=#82b366;" parent="1" source="RSsJzvKsAqPbumT_QY3e-44" target="RSsJzvKsAqPbumT_QY3e-20" edge="1">
          <mxGeometry relative="1" as="geometry">
            <mxPoint x="410" y="1160" as="targetPoint" />
          </mxGeometry>
        </mxCell>
        <mxCell id="RSsJzvKsAqPbumT_QY3e-41" value="YES" style="edgeLabel;html=1;align=center;verticalAlign=middle;resizable=0;points=[];" parent="RSsJzvKsAqPbumT_QY3e-40" vertex="1" connectable="0">
          <mxGeometry x="-0.3442" y="2" relative="1" as="geometry">
            <mxPoint as="offset" />
          </mxGeometry>
        </mxCell>
        <mxCell id="RSsJzvKsAqPbumT_QY3e-42" style="edgeStyle=orthogonalEdgeStyle;rounded=0;orthogonalLoop=1;jettySize=auto;html=1;exitX=1;exitY=0.5;exitDx=0;exitDy=0;entryX=0;entryY=0.5;entryDx=0;entryDy=0;fillColor=#f8cecc;strokeColor=#b85450;" parent="1" source="RSsJzvKsAqPbumT_QY3e-44" target="RSsJzvKsAqPbumT_QY3e-36" edge="1">
          <mxGeometry relative="1" as="geometry" />
        </mxCell>
        <mxCell id="RSsJzvKsAqPbumT_QY3e-43" value="NO" style="edgeLabel;html=1;align=center;verticalAlign=middle;resizable=0;points=[];" parent="RSsJzvKsAqPbumT_QY3e-42" vertex="1" connectable="0">
          <mxGeometry x="0.268" y="1" relative="1" as="geometry">
            <mxPoint as="offset" />
          </mxGeometry>
        </mxCell>
        <mxCell id="RSsJzvKsAqPbumT_QY3e-44" value="Did you apply for the assignements ?" style="rhombus;whiteSpace=wrap;html=1;shadow=0;strokeWidth=1;spacing=6;spacingTop=-4;" parent="1" vertex="1">
          <mxGeometry x="336.5" y="955" width="133.5" height="145" as="geometry" />
        </mxCell>
        <mxCell id="RSsJzvKsAqPbumT_QY3e-45" value="Log out" style="ellipse;whiteSpace=wrap;html=1;" parent="1" vertex="1">
          <mxGeometry x="655" y="925" width="120" height="60" as="geometry" />
        </mxCell>
        <mxCell id="RSsJzvKsAqPbumT_QY3e-46" style="edgeStyle=orthogonalEdgeStyle;rounded=0;orthogonalLoop=1;jettySize=auto;html=1;entryX=0;entryY=0.75;entryDx=0;entryDy=0;fillColor=#d5e8d4;strokeColor=#82b366;" parent="1" source="RSsJzvKsAqPbumT_QY3e-50" target="RSsJzvKsAqPbumT_QY3e-36" edge="1">
          <mxGeometry relative="1" as="geometry" />
        </mxCell>
        <mxCell id="RSsJzvKsAqPbumT_QY3e-47" value="Yes" style="edgeLabel;html=1;align=center;verticalAlign=middle;resizable=0;points=[];" parent="RSsJzvKsAqPbumT_QY3e-46" vertex="1" connectable="0">
          <mxGeometry x="-0.2863" y="-3" relative="1" as="geometry">
            <mxPoint as="offset" />
          </mxGeometry>
        </mxCell>
        <mxCell id="RSsJzvKsAqPbumT_QY3e-48" style="edgeStyle=orthogonalEdgeStyle;rounded=0;orthogonalLoop=1;jettySize=auto;html=1;entryX=1;entryY=1;entryDx=0;entryDy=0;fillColor=#f8cecc;strokeColor=#b85450;" parent="1" source="RSsJzvKsAqPbumT_QY3e-50" target="RSsJzvKsAqPbumT_QY3e-45" edge="1">
          <mxGeometry relative="1" as="geometry">
            <Array as="points">
              <mxPoint x="690" y="1140" />
              <mxPoint x="690" y="1043" />
              <mxPoint x="757" y="1043" />
            </Array>
          </mxGeometry>
        </mxCell>
        <mxCell id="RSsJzvKsAqPbumT_QY3e-49" value="NO" style="edgeLabel;html=1;align=center;verticalAlign=middle;resizable=0;points=[];" parent="RSsJzvKsAqPbumT_QY3e-48" vertex="1" connectable="0">
          <mxGeometry x="-0.2262" y="-2" relative="1" as="geometry">
            <mxPoint as="offset" />
          </mxGeometry>
        </mxCell>
        <mxCell id="RSsJzvKsAqPbumT_QY3e-50" value="Apply again ?&amp;nbsp;" style="rhombus;whiteSpace=wrap;html=1;" parent="1" vertex="1">
          <mxGeometry x="575" y="1100" width="80" height="80" as="geometry" />
        </mxCell>
      </root>
    </mxGraphModel>
  </diagram>
  <diagram id="G3unG97RP3L-rtfcocSE" name="Database Class Diagram">
    <mxGraphModel dx="1422" dy="766" grid="1" gridSize="10" guides="1" tooltips="1" connect="1" arrows="1" fold="1" page="1" pageScale="1" pageWidth="850" pageHeight="1100" math="0" shadow="0">
      <root>
        <mxCell id="0" />
        <mxCell id="1" parent="0" />
        <mxCell id="YIglXnmBWIAECf4AswGE-1" value="User Roles" style="swimlane;fontStyle=2;align=center;verticalAlign=top;childLayout=stackLayout;horizontal=1;startSize=26;horizontalStack=0;resizeParent=1;resizeLast=0;collapsible=1;marginBottom=0;rounded=0;shadow=0;strokeWidth=1;" parent="1" vertex="1">
          <mxGeometry x="30" y="100" width="160" height="80" as="geometry">
            <mxRectangle x="230" y="140" width="160" height="26" as="alternateBounds" />
          </mxGeometry>
        </mxCell>
        <mxCell id="YIglXnmBWIAECf4AswGE-2" value="ID" style="text;align=left;verticalAlign=top;spacingLeft=4;spacingRight=4;overflow=hidden;rotatable=0;points=[[0,0.5],[1,0.5]];portConstraint=eastwest;" parent="YIglXnmBWIAECf4AswGE-1" vertex="1">
          <mxGeometry y="26" width="160" height="26" as="geometry" />
        </mxCell>
        <mxCell id="YIglXnmBWIAECf4AswGE-3" value="Role" style="text;align=left;verticalAlign=top;spacingLeft=4;spacingRight=4;overflow=hidden;rotatable=0;points=[[0,0.5],[1,0.5]];portConstraint=eastwest;rounded=0;shadow=0;html=0;" parent="YIglXnmBWIAECf4AswGE-1" vertex="1">
          <mxGeometry y="52" width="160" height="26" as="geometry" />
        </mxCell>
        <mxCell id="YIglXnmBWIAECf4AswGE-4" value="Assignments" style="swimlane;fontStyle=0;align=center;verticalAlign=top;childLayout=stackLayout;horizontal=1;startSize=26;horizontalStack=0;resizeParent=1;resizeLast=0;collapsible=1;marginBottom=0;rounded=0;shadow=0;strokeWidth=1;" parent="1" vertex="1">
          <mxGeometry x="350" y="320" width="160" height="130" as="geometry">
            <mxRectangle x="130" y="380" width="160" height="26" as="alternateBounds" />
          </mxGeometry>
        </mxCell>
        <mxCell id="YIglXnmBWIAECf4AswGE-5" value="ID" style="text;align=left;verticalAlign=top;spacingLeft=4;spacingRight=4;overflow=hidden;rotatable=0;points=[[0,0.5],[1,0.5]];portConstraint=eastwest;" parent="YIglXnmBWIAECf4AswGE-4" vertex="1">
          <mxGeometry y="26" width="160" height="26" as="geometry" />
        </mxCell>
        <mxCell id="YIglXnmBWIAECf4AswGE-6" value="StudyFieldID" style="text;align=left;verticalAlign=top;spacingLeft=4;spacingRight=4;overflow=hidden;rotatable=0;points=[[0,0.5],[1,0.5]];portConstraint=eastwest;" parent="YIglXnmBWIAECf4AswGE-4" vertex="1">
          <mxGeometry y="52" width="160" height="26" as="geometry" />
        </mxCell>
        <mxCell id="YIglXnmBWIAECf4AswGE-7" value="Subject" style="text;align=left;verticalAlign=top;spacingLeft=4;spacingRight=4;overflow=hidden;rotatable=0;points=[[0,0.5],[1,0.5]];portConstraint=eastwest;" parent="YIglXnmBWIAECf4AswGE-4" vertex="1">
          <mxGeometry y="78" width="160" height="26" as="geometry" />
        </mxCell>
        <mxCell id="YIglXnmBWIAECf4AswGE-8" value="Credits" style="text;align=left;verticalAlign=top;spacingLeft=4;spacingRight=4;overflow=hidden;rotatable=0;points=[[0,0.5],[1,0.5]];portConstraint=eastwest;" parent="YIglXnmBWIAECf4AswGE-4" vertex="1">
          <mxGeometry y="104" width="160" height="26" as="geometry" />
        </mxCell>
        <mxCell id="YIglXnmBWIAECf4AswGE-9" value="Accounts" style="swimlane;fontStyle=0;align=center;verticalAlign=top;childLayout=stackLayout;horizontal=1;startSize=26;horizontalStack=0;resizeParent=1;resizeLast=0;collapsible=1;marginBottom=0;rounded=0;shadow=0;strokeWidth=1;" parent="1" vertex="1">
          <mxGeometry x="330" y="70" width="160" height="150" as="geometry">
            <mxRectangle x="340" y="380" width="170" height="26" as="alternateBounds" />
          </mxGeometry>
        </mxCell>
        <mxCell id="eq-tKTywtS7I7MJpGgVc-1" value="Id" style="text;align=left;verticalAlign=top;spacingLeft=4;spacingRight=4;overflow=hidden;rotatable=0;points=[[0,0.5],[1,0.5]];portConstraint=eastwest;" parent="YIglXnmBWIAECf4AswGE-9" vertex="1">
          <mxGeometry y="26" width="160" height="24" as="geometry" />
        </mxCell>
        <mxCell id="YIglXnmBWIAECf4AswGE-10" value="DNI or NIE" style="text;align=left;verticalAlign=top;spacingLeft=4;spacingRight=4;overflow=hidden;rotatable=0;points=[[0,0.5],[1,0.5]];portConstraint=eastwest;" parent="YIglXnmBWIAECf4AswGE-9" vertex="1">
          <mxGeometry y="50" width="160" height="24" as="geometry" />
        </mxCell>
        <mxCell id="YIglXnmBWIAECf4AswGE-11" value="UserRoleId" style="text;align=left;verticalAlign=top;spacingLeft=4;spacingRight=4;overflow=hidden;rotatable=0;points=[[0,0.5],[1,0.5]];portConstraint=eastwest;" parent="YIglXnmBWIAECf4AswGE-9" vertex="1">
          <mxGeometry y="74" width="160" height="24" as="geometry" />
        </mxCell>
        <mxCell id="YIglXnmBWIAECf4AswGE-12" value="First name" style="text;align=left;verticalAlign=top;spacingLeft=4;spacingRight=4;overflow=hidden;rotatable=0;points=[[0,0.5],[1,0.5]];portConstraint=eastwest;" parent="YIglXnmBWIAECf4AswGE-9" vertex="1">
          <mxGeometry y="98" width="160" height="26" as="geometry" />
        </mxCell>
        <mxCell id="YIglXnmBWIAECf4AswGE-13" value="Last name" style="text;align=left;verticalAlign=top;spacingLeft=4;spacingRight=4;overflow=hidden;rotatable=0;points=[[0,0.5],[1,0.5]];portConstraint=eastwest;" parent="YIglXnmBWIAECf4AswGE-9" vertex="1">
          <mxGeometry y="124" width="160" height="26" as="geometry" />
        </mxCell>
        <mxCell id="YIglXnmBWIAECf4AswGE-14" value="Study Fields" style="swimlane;fontStyle=0;align=center;verticalAlign=top;childLayout=stackLayout;horizontal=1;startSize=26;horizontalStack=0;resizeParent=1;resizeLast=0;collapsible=1;marginBottom=0;rounded=0;shadow=0;strokeWidth=1;" parent="1" vertex="1">
          <mxGeometry x="100" y="300" width="160" height="80" as="geometry">
            <mxRectangle x="550" y="140" width="160" height="26" as="alternateBounds" />
          </mxGeometry>
        </mxCell>
        <mxCell id="YIglXnmBWIAECf4AswGE-15" value="ID" style="text;align=left;verticalAlign=top;spacingLeft=4;spacingRight=4;overflow=hidden;rotatable=0;points=[[0,0.5],[1,0.5]];portConstraint=eastwest;" parent="YIglXnmBWIAECf4AswGE-14" vertex="1">
          <mxGeometry y="26" width="160" height="26" as="geometry" />
        </mxCell>
        <mxCell id="YIglXnmBWIAECf4AswGE-16" value="Study" style="text;align=left;verticalAlign=top;spacingLeft=4;spacingRight=4;overflow=hidden;rotatable=0;points=[[0,0.5],[1,0.5]];portConstraint=eastwest;rounded=0;shadow=0;html=0;" parent="YIglXnmBWIAECf4AswGE-14" vertex="1">
          <mxGeometry y="52" width="160" height="26" as="geometry" />
        </mxCell>
        <mxCell id="YIglXnmBWIAECf4AswGE-26" value="" style="edgeStyle=entityRelationEdgeStyle;fontSize=12;html=1;endArrow=ERmandOne;startArrow=ERmandOne;rounded=0;exitX=1;exitY=0.5;exitDx=0;exitDy=0;entryX=0;entryY=0.5;entryDx=0;entryDy=0;" parent="1" source="YIglXnmBWIAECf4AswGE-2" target="YIglXnmBWIAECf4AswGE-11" edge="1">
          <mxGeometry width="100" height="100" relative="1" as="geometry">
            <mxPoint x="220" y="250" as="sourcePoint" />
            <mxPoint x="320" y="150" as="targetPoint" />
          </mxGeometry>
        </mxCell>
        <mxCell id="YIglXnmBWIAECf4AswGE-27" value="1 to 1" style="edgeLabel;html=1;align=center;verticalAlign=middle;resizable=0;points=[];" parent="YIglXnmBWIAECf4AswGE-26" vertex="1" connectable="0">
          <mxGeometry x="-0.5873" y="-2" relative="1" as="geometry">
            <mxPoint x="33" y="-1" as="offset" />
          </mxGeometry>
        </mxCell>
        <mxCell id="YIglXnmBWIAECf4AswGE-28" value="" style="edgeStyle=entityRelationEdgeStyle;fontSize=12;html=1;endArrow=ERmandOne;startArrow=ERmandOne;rounded=0;exitX=1.019;exitY=0.808;exitDx=0;exitDy=0;exitPerimeter=0;entryX=0;entryY=0.5;entryDx=0;entryDy=0;" parent="1" source="YIglXnmBWIAECf4AswGE-15" target="YIglXnmBWIAECf4AswGE-6" edge="1">
          <mxGeometry width="100" height="100" relative="1" as="geometry">
            <mxPoint x="420" y="454" as="sourcePoint" />
            <mxPoint x="520" y="354" as="targetPoint" />
          </mxGeometry>
        </mxCell>
        <mxCell id="YIglXnmBWIAECf4AswGE-29" value="1 to 1" style="edgeLabel;html=1;align=center;verticalAlign=middle;resizable=0;points=[];" parent="YIglXnmBWIAECf4AswGE-28" vertex="1" connectable="0">
          <mxGeometry x="-0.0911" relative="1" as="geometry">
            <mxPoint x="1" as="offset" />
          </mxGeometry>
        </mxCell>
        <mxCell id="YIglXnmBWIAECf4AswGE-30" value="" style="edgeStyle=entityRelationEdgeStyle;fontSize=12;html=1;endArrow=ERmandOne;startArrow=ERmandOne;rounded=0;exitX=1;exitY=0.5;exitDx=0;exitDy=0;entryX=0;entryY=0.5;entryDx=0;entryDy=0;" parent="1" source="eq-tKTywtS7I7MJpGgVc-1" target="1ipFRfeDs85s05UROh9V-3" edge="1">
          <mxGeometry width="100" height="100" relative="1" as="geometry">
            <mxPoint x="800" y="420" as="sourcePoint" />
            <mxPoint x="900" y="320" as="targetPoint" />
          </mxGeometry>
        </mxCell>
        <mxCell id="YIglXnmBWIAECf4AswGE-31" value="1 to 1&amp;nbsp;" style="edgeLabel;html=1;align=center;verticalAlign=middle;resizable=0;points=[];" parent="YIglXnmBWIAECf4AswGE-30" vertex="1" connectable="0">
          <mxGeometry x="0.1468" y="4" relative="1" as="geometry">
            <mxPoint y="1" as="offset" />
          </mxGeometry>
        </mxCell>
        <mxCell id="1ipFRfeDs85s05UROh9V-1" value="Profile (Teacher Students)" style="swimlane;fontStyle=0;align=center;verticalAlign=top;childLayout=stackLayout;horizontal=1;startSize=26;horizontalStack=0;resizeParent=1;resizeLast=0;collapsible=1;marginBottom=0;rounded=0;shadow=0;strokeWidth=1;" parent="1" vertex="1">
          <mxGeometry x="1010" y="380" width="160" height="80" as="geometry">
            <mxRectangle x="340" y="380" width="170" height="26" as="alternateBounds" />
          </mxGeometry>
        </mxCell>
        <mxCell id="1ipFRfeDs85s05UROh9V-2" value="ID" style="text;align=left;verticalAlign=top;spacingLeft=4;spacingRight=4;overflow=hidden;rotatable=0;points=[[0,0.5],[1,0.5]];portConstraint=eastwest;" parent="1ipFRfeDs85s05UROh9V-1" vertex="1">
          <mxGeometry y="26" width="160" height="26" as="geometry" />
        </mxCell>
        <mxCell id="1ipFRfeDs85s05UROh9V-3" value="AccountID" style="text;align=left;verticalAlign=top;spacingLeft=4;spacingRight=4;overflow=hidden;rotatable=0;points=[[0,0.5],[1,0.5]];portConstraint=eastwest;" parent="1ipFRfeDs85s05UROh9V-1" vertex="1">
          <mxGeometry y="52" width="160" height="26" as="geometry" />
        </mxCell>
        <mxCell id="ilgt_1-Sre2MRQo-hC8D-1" value="Profiles_Assignments" style="swimlane;fontStyle=0;align=center;verticalAlign=top;childLayout=stackLayout;horizontal=1;startSize=26;horizontalStack=0;resizeParent=1;resizeLast=0;collapsible=1;marginBottom=0;rounded=0;shadow=0;strokeWidth=1;" vertex="1" parent="1">
          <mxGeometry x="660" y="490" width="160" height="104" as="geometry">
            <mxRectangle x="550" y="140" width="160" height="26" as="alternateBounds" />
          </mxGeometry>
        </mxCell>
        <mxCell id="ilgt_1-Sre2MRQo-hC8D-2" value="ID" style="text;align=left;verticalAlign=top;spacingLeft=4;spacingRight=4;overflow=hidden;rotatable=0;points=[[0,0.5],[1,0.5]];portConstraint=eastwest;" vertex="1" parent="ilgt_1-Sre2MRQo-hC8D-1">
          <mxGeometry y="26" width="160" height="26" as="geometry" />
        </mxCell>
        <mxCell id="ilgt_1-Sre2MRQo-hC8D-3" value="ProfileId" style="text;align=left;verticalAlign=top;spacingLeft=4;spacingRight=4;overflow=hidden;rotatable=0;points=[[0,0.5],[1,0.5]];portConstraint=eastwest;rounded=0;shadow=0;html=0;" vertex="1" parent="ilgt_1-Sre2MRQo-hC8D-1">
          <mxGeometry y="52" width="160" height="26" as="geometry" />
        </mxCell>
        <mxCell id="ilgt_1-Sre2MRQo-hC8D-4" value="AssignmentID" style="text;align=left;verticalAlign=top;spacingLeft=4;spacingRight=4;overflow=hidden;rotatable=0;points=[[0,0.5],[1,0.5]];portConstraint=eastwest;rounded=0;shadow=0;html=0;" vertex="1" parent="ilgt_1-Sre2MRQo-hC8D-1">
          <mxGeometry y="78" width="160" height="26" as="geometry" />
        </mxCell>
        <mxCell id="ilgt_1-Sre2MRQo-hC8D-5" value="" style="edgeStyle=entityRelationEdgeStyle;fontSize=12;html=1;endArrow=ERmandOne;startArrow=ERmandOne;rounded=0;entryX=0;entryY=0.5;entryDx=0;entryDy=0;" edge="1" parent="1" source="YIglXnmBWIAECf4AswGE-5" target="ilgt_1-Sre2MRQo-hC8D-4">
          <mxGeometry width="100" height="100" relative="1" as="geometry">
            <mxPoint x="520" y="357.00800000000004" as="sourcePoint" />
            <mxPoint x="606.96" y="395" as="targetPoint" />
          </mxGeometry>
        </mxCell>
        <mxCell id="ilgt_1-Sre2MRQo-hC8D-6" value="1 to 1" style="edgeLabel;html=1;align=center;verticalAlign=middle;resizable=0;points=[];" vertex="1" connectable="0" parent="ilgt_1-Sre2MRQo-hC8D-5">
          <mxGeometry x="-0.0911" relative="1" as="geometry">
            <mxPoint x="1" as="offset" />
          </mxGeometry>
        </mxCell>
        <mxCell id="ilgt_1-Sre2MRQo-hC8D-7" value="" style="edgeStyle=entityRelationEdgeStyle;fontSize=12;html=1;endArrow=ERmandOne;startArrow=ERmandOne;rounded=0;exitX=1;exitY=0.5;exitDx=0;exitDy=0;entryX=0;entryY=0.5;entryDx=0;entryDy=0;" edge="1" parent="1" source="ilgt_1-Sre2MRQo-hC8D-3" target="1ipFRfeDs85s05UROh9V-2">
          <mxGeometry width="100" height="100" relative="1" as="geometry">
            <mxPoint x="860" y="429.99800000000005" as="sourcePoint" />
            <mxPoint x="946.96" y="467.99" as="targetPoint" />
          </mxGeometry>
        </mxCell>
        <mxCell id="ilgt_1-Sre2MRQo-hC8D-8" value="1 to 1" style="edgeLabel;html=1;align=center;verticalAlign=middle;resizable=0;points=[];" vertex="1" connectable="0" parent="ilgt_1-Sre2MRQo-hC8D-7">
          <mxGeometry x="-0.0911" relative="1" as="geometry">
            <mxPoint x="1" as="offset" />
          </mxGeometry>
        </mxCell>
      </root>
    </mxGraphModel>
  </diagram>
</mxfile>
